<?xml version="1.0" standalone="no"?>
<!DOCTYPE svg PUBLIC "-//W3C//DTD SVG 20010904//EN"
 "http://www.w3.org/TR/2001/REC-SVG-20010904/DTD/svg10.dtd">
<svg version="1.0" xmlns="http://www.w3.org/2000/svg"
 width="103.000000pt" height="103.000000pt" viewBox="0 0 103.000000 103.000000"
 preserveAspectRatio="xMidYMid meet">
<metadata>
Created by potrace 1.14, written by Peter Selinger 2001-2017
</metadata>
<g transform="translate(0.000000,103.000000) scale(0.100000,-0.100000)"
fill="#000000" stroke="none">
<path d="M0 515 l0 -515 515 0 515 0 0 515 0 515 -515 0 -515 0 0 -515z m720
173 c-1 -7 -7 -42 -15 -78 -8 -36 -14 -68 -15 -72 0 -5 20 -8 43 -8 l44 0 13
73 c17 98 17 97 60 97 l38 0 -13 -57 c-7 -32 -28 -129 -45 -215 l-33 -158 -39
0 c-35 0 -38 2 -33 23 46 208 46 197 -4 197 -22 0 -41 -5 -44 -12 -2 -7 -12
-57 -22 -110 l-19 -98 -38 0 c-21 0 -38 3 -38 8 0 4 18 90 39 192 22 102 37
187 34 190 -2 3 -20 -12 -39 -32 -28 -31 -34 -45 -34 -83 0 -48 -5 -53 -35
-31 -24 17 -15 79 17 113 48 52 179 96 178 61z"/>
</g>
</svg>
